<svg width="14" height="15" viewBox="0 0 14 15" fill="none" xmlns="http://www.w3.org/2000/svg">
<path fill-rule="evenodd" clip-rule="evenodd" d="M9.90082 14.4991C10.0044 14.4991 10.1038 14.4464 10.177 14.3527C10.2503 14.2589 10.2914 14.1318 10.2914 13.9992V2.20768L12.749 5.35427C12.8224 5.44815 12.9218 5.50089 13.0256 5.50089C13.1293 5.50089 13.2288 5.44815 13.3021 5.35427C13.3755 5.2604 13.4167 5.13308 13.4167 5.00032C13.4167 4.86756 13.3755 4.74024 13.3021 4.64636L10.1774 0.646875C10.1411 0.600318 10.098 0.56338 10.0505 0.538176C10.0031 0.512973 9.95219 0.5 9.90082 0.5C9.84944 0.5 9.79857 0.512973 9.75111 0.538176C9.70366 0.56338 9.66056 0.600318 9.62428 0.646875L6.49952 4.64636C6.42618 4.74024 6.38497 4.86756 6.38497 5.00032C6.38497 5.13308 6.42618 5.2604 6.49952 5.35427C6.57287 5.44815 6.67234 5.50089 6.77606 5.50089C6.87979 5.50089 6.97926 5.44815 7.0526 5.35427L9.51022 2.20768V13.9992C9.51022 14.1318 9.55137 14.2589 9.62462 14.3527C9.69787 14.4464 9.79722 14.4991 9.90082 14.4991ZM4.4325 0.500894C4.53609 0.500894 4.63544 0.553565 4.70869 0.647322C4.78194 0.741078 4.82309 0.868239 4.82309 1.00083V12.7923L7.28071 9.64573C7.35405 9.55185 7.45353 9.49911 7.55725 9.49911C7.66097 9.49911 7.76045 9.55185 7.83379 9.64573C7.90713 9.7396 7.94834 9.86692 7.94834 9.99968C7.94834 10.1324 7.90713 10.2598 7.83379 10.3536L4.70904 14.3531C4.67276 14.3997 4.62965 14.4366 4.5822 14.4618C4.53475 14.487 4.48387 14.5 4.4325 14.5C4.38112 14.5 4.33025 14.487 4.2828 14.4618C4.23534 14.4366 4.19224 14.3997 4.15596 14.3531L1.0312 10.3536C0.95786 10.2598 0.916656 10.1324 0.916656 9.99968C0.916656 9.86692 0.95786 9.7396 1.0312 9.64573C1.10455 9.55185 1.20402 9.49911 1.30774 9.49911C1.41147 9.49911 1.51094 9.55185 1.58428 9.64573L4.0419 12.7923V1.00083C4.0419 0.868239 4.08306 0.741078 4.15631 0.647322C4.22956 0.553565 4.32891 0.500894 4.4325 0.500894Z" fill="#726969"/>
</svg>
