<svg width="21" height="23" viewBox="0 0 21 23" fill="none" xmlns="http://www.w3.org/2000/svg">
<path d="M16.8998 0.701288C16.7826 0.572403 16.6237 0.5 16.458 0.5C16.2923 0.5 16.1333 0.572403 16.0161 0.701288L13.9575 2.96588L18.591 8.06295L20.6497 5.79972C20.7079 5.73586 20.7541 5.66 20.7856 5.57647C20.8171 5.49295 20.8333 5.40341 20.8333 5.31298C20.8333 5.22255 20.8171 5.13301 20.7856 5.04949C20.7541 4.96596 20.7079 4.8901 20.6497 4.82624L16.8998 0.701288ZM17.7073 9.03506L13.0738 3.938L4.94911 12.8754H5.20785C5.3736 12.8754 5.53257 12.9478 5.64977 13.0767C5.76698 13.2057 5.83282 13.3805 5.83282 13.5629V14.2504H6.45779C6.62355 14.2504 6.78251 14.3228 6.89972 14.4517C7.01692 14.5807 7.08277 14.7555 7.08277 14.9379V15.6254H7.70774C7.87349 15.6254 8.03246 15.6978 8.14966 15.8267C8.26687 15.9556 8.33271 16.1305 8.33271 16.3128V17.0003H8.95768C9.12344 17.0003 9.2824 17.0728 9.39961 17.2017C9.51681 17.3306 9.58266 17.5055 9.58266 17.6878V17.9724L17.7073 9.03506ZM8.37271 19.3034C8.34641 19.2265 8.33286 19.145 8.33271 19.0628V18.3753H7.70774C7.54199 18.3753 7.38302 18.3029 7.26582 18.174C7.14861 18.045 7.08277 17.8702 7.08277 17.6878V17.0003H6.45779C6.29204 17.0003 6.13308 16.9279 6.01587 16.799C5.89867 16.67 5.83282 16.4952 5.83282 16.3128V15.6254H5.20785C5.0421 15.6254 4.88313 15.5529 4.76593 15.424C4.64872 15.2951 4.58288 15.1202 4.58288 14.9379V14.2504H3.9579C3.88318 14.2502 3.80909 14.2353 3.73916 14.2064L3.51542 14.4511C3.45586 14.5171 3.40909 14.5957 3.37793 14.6821L0.878038 21.557C0.832577 21.682 0.821448 21.8188 0.846031 21.9507C0.870614 22.0825 0.929829 22.2035 1.01633 22.2986C1.10284 22.3938 1.21283 22.4589 1.33267 22.486C1.45251 22.513 1.57693 22.5008 1.6905 22.4508L7.94023 19.7008C8.0188 19.6665 8.09024 19.6151 8.15022 19.5496L8.37271 19.3034Z" fill="black"/>
</svg>
