<svg width="20" height="19" viewBox="0 0 20 19" fill="none" xmlns="http://www.w3.org/2000/svg">
<path d="M15.8468 19C17.4333 19 18.6458 17.4325 18.6458 15.6071V5.42857H2.02078V15.6071C2.02078 17.4325 3.23322 19 4.81972 19H15.8468ZM7.36453 8.14286H13.302C13.4595 8.14286 13.6105 8.21435 13.7219 8.34161C13.8332 8.46886 13.8958 8.64146 13.8958 8.82143C13.8958 9.0014 13.8332 9.17399 13.7219 9.30125C13.6105 9.42851 13.4595 9.5 13.302 9.5H7.36453C7.20706 9.5 7.05604 9.42851 6.94469 9.30125C6.83334 9.17399 6.77078 9.0014 6.77078 8.82143C6.77078 8.64146 6.83334 8.46886 6.94469 8.34161C7.05604 8.21435 7.20706 8.14286 7.36453 8.14286ZM1.78328 0C1.53133 0 1.28969 0.114387 1.11153 0.317998C0.933371 0.521609 0.833282 0.797765 0.833282 1.08571L0.833282 2.71429C0.833282 3.00223 0.933371 3.27839 1.11153 3.482C1.28969 3.68561 1.53133 3.8 1.78328 3.8H18.8833C19.1352 3.8 19.3769 3.68561 19.555 3.482C19.7332 3.27839 19.8333 3.00223 19.8333 2.71429V1.08571C19.8333 0.797765 19.7332 0.521609 19.555 0.317998C19.3769 0.114387 19.1352 0 18.8833 0H1.78328Z" fill="black"/>
</svg>
